<?xml version="1.0" standalone="no"?>
<!DOCTYPE svg PUBLIC "-//W3C//DTD SVG 20010904//EN"
 "http://www.w3.org/TR/2001/REC-SVG-20010904/DTD/svg10.dtd">
<svg version="1.0" xmlns="http://www.w3.org/2000/svg"
 width="512.000000pt" height="512.000000pt" viewBox="0 0 512.000000 512.000000"
 preserveAspectRatio="xMidYMid meet">

<g transform="translate(0.000000,512.000000) scale(0.100000,-0.100000)"
fill="#ffffff" stroke="none">
<path d="M2165 4188 c-273 -554 -396 -793 -410 -799 -11 -4 -405 -63 -875
-130 -470 -67 -859 -125 -863 -129 -4 -4 278 -283 628 -621 356 -344 635 -622
635 -631 0 -10 -65 -399 -145 -864 -80 -466 -145 -853 -143 -861 2 -9 244 114
718 363 393 207 747 392 785 411 l70 34 780 -410 c494 -260 781 -406 783 -397
1 7 -63 394 -143 860 -80 466 -145 855 -145 864 0 9 286 293 636 631 349 338
631 617 627 621 -4 4 -390 62 -858 129 -467 67 -861 124 -875 127 -22 5 -73
102 -415 799 -214 437 -392 794 -395 794 -3 0 -180 -356 -395 -791z m691 -481
l292 -592 656 -95 c361 -52 656 -98 656 -101 0 -4 -201 -202 -447 -440 -247
-238 -460 -444 -475 -458 l-26 -26 112 -650 c62 -357 111 -652 110 -654 -2 -2
-267 135 -588 304 l-586 307 -582 -306 c-320 -168 -585 -305 -588 -304 -3 2
45 296 106 653 l112 650 -31 31 c-18 17 -231 223 -474 459 -244 235 -443 430
-443 434 0 3 294 48 653 100 358 51 654 95 657 97 3 1 136 268 295 593 160
325 292 591 295 591 3 0 136 -267 296 -593z"/>
</g>
</svg>
